# xmcd
#
# Track frame offsets:
#	150
#	25422
#	48377
#	69547
#	89162
#	107325
#	122445
#	139782
#	158637
#	181850
#	212845
#
# Disc length: 3076 seconds
#
# Revision: 1
# Processed by: cddbd v1.4PL0 Copyright (c) Steve Scherf et al.
# Submitted via: audiograbber 1.81.02
#
DISCID=930c020b
DTITLE=Chamberlain - The Moon My Saddle
DYEAR=2000
DGENRE=Country
TTITLE0=Try for Thunder
TTITLE1=Crush You
TTITLE2=World Don´t Want Us
TTITLE3=Stars in the Streetlight
TTITLE4=Mountain of a Heart
TTITLE5=Racing Cincinnati
TTITLE6=Manhattan´s Iron Horses (The Last Train Out)
TTITLE7=Lonsesome Song
TTITLE8=Good Enough
TTITLE9=Until the Day Burns Down
TTITLE10=Last to Know
EXTD=
EXTT0=
EXTT1=
EXTT2=
EXTT3=
EXTT4=
EXTT5=
EXTT6=
EXTT7=
EXTT8=
EXTT9=
EXTT10=
PLAYORDER=
